<svg enable-background="new 0 0 125.4 151.4" viewBox="0 0 125.4 151.4" xmlns="http://www.w3.org/2000/svg"><path d="m36.2 132.5-5.2-16.5h5.1l1.7 7.1c.4 1.8.9 3.8 1.2 5.7h.1c.3-2 .7-3.9 1.2-5.8l1.7-7h5.1l-5.5 16.4z" fill="#6fbb44"/><path d="m52.1 128.8-1.1 3.8h-4.5l5.3-16.4h5.5l4.5 16.5h-4.5l-1-3.8zm3.8-2.5-.8-3.4c-.2-1-.5-2.6-.8-3.7h-.1c-.3 1.1-.6 2.8-.9 3.8l-.9 3.4z" fill="#6fbb44"/><path d="m64.4 132.6.1-16.5h4.2l3.6 6.5c.7 1.3 1.9 3.4 2.5 4.8h.1c-.1-1.7-.4-4.6-.4-7.6v-3.6h4.1l-.1 16.5h-4.2l-3.6-6.3c-.8-1.4-1.8-3.5-2.4-5h-.1c.1 1.7.3 4.2.2 7.5v3.7z" fill="#6fbb44"/><path d="m87.4 116.3-.1 16.5h-4.6l.1-16.5z" fill="#6fbb44"/><path d="m90.9 129.5c1 .4 2.6.7 3.9.7 2.2 0 3.3-.8 3.3-1.8 0-1.2-1-1.8-3.1-2.7-3.2-1.4-4.5-3.1-4.5-4.6 0-2.6 2.6-4.8 7.5-4.8 1.6 0 3 .3 3.7.6l-.8 2.8c-.7-.3-1.7-.6-3-.6-2 0-2.9.8-2.9 1.7 0 1 .7 1.5 3.3 2.6 3.1 1.3 4.3 3 4.3 4.7 0 3-3.2 5-7.9 4.9-1.9 0-3.8-.4-4.5-.7z" fill="#6fbb44"/><path d="m110 116.5v6.6h4.8v-6.6h4.6l-.1 16.5h-4.6v-6.9h-4.8v6.9h-4.6l.1-16.5z" fill="#6fbb44"/><path d="m11.2 115.9-.1 16.5h-4.6l.1-16.5z" fill="#fff"/><path d="m15 116.1c1.3-.2 3.1-.3 4.8-.3 2.8 0 4.9.3 6.5 1.3 1.4.9 2 2.2 2 3.6 0 1.8-.8 3-2 3.9-1.5 1.1-3.9 1.5-5.8 1.5-.3 0-.6 0-.9 0v6.1h-4.6zm4.6 7.5c.2 0 .5.1.7.1 2.3 0 3.4-1.1 3.4-2.7 0-1.4-.8-2.6-3-2.6-.4 0-.8 0-1.1.1z" fill="#fff"/><path d="m102.4 47c-2.6-3.4-6.2-5.1-10.8-5.1l-20.8-.2-.1 11.2 18.7.1c1.3 0 2.4.5 3.2 1.6.7.9 1 2 1 3.3s-.4 2.3-1.1 3.2c-.8.9-1.8 1.4-3.2 1.4l-18.8-.2-.1 11.4 20.8.2c4.6.1 8.3-1.6 11-4.9 2.4-3 3.7-6.6 3.8-11-.1-4.3-1.2-8-3.6-11z" fill="#fff"/><g fill="#6fbb44"><path d="m52.6 40.5h11.2v13.4h-11.2z" transform="matrix(.00616796 -1 1 .00616796 10.6385 105.1042)"/><path d="m40.6 30.5h6.8v8.2h-6.8z" transform="matrix(.00616796 -1 1 .00616796 9.0394 78.4173)"/><path d="m31.2 30.3h5v6h-5z" transform="matrix(.00616796 -1 1 .00616796 .1396 66.7171)"/><path d="m40.6 40.9h6.6v8h-6.6z" transform="matrix(.00616796 -1 1 .00616796 -1.2047 88.4736)"/><path d="m40.1 23.2h5v6h-5z" transform="matrix(.00616796 -1 1 .00616796 16.148 68.6117)"/><path d="m31.3 23.6h3.7v4.4h-3.7z" transform="matrix(.00616796 -1 1 .00616796 7.1382 58.8111)"/><path d="m24.8 18.6h3.7v4.4h-3.7z" transform="matrix(.00616796 -1 1 .00616796 5.6688 47.3885)"/><path d="m53.5 30.8h6.6v8h-6.6z" transform="matrix(.00616796 -1 1 .00616796 21.7093 91.323)"/></g><path d="m64.8 62.5c-4 .5-7.2 1.9-9.5 4.2-2.6 2.6-4 6-4 10.2v7.9 6 3.6l13.4.1z" fill="#fff"/><path d="m72.6 83c11.3 1.4 19.2 4.5 19.2 8 0 4.7-14.5 8.5-32.4 8.4s-32.3-4-32.3-8.8c0-3.5 8-6.5 19.3-7.7-14.9 1.4-25.6 5.3-25.6 10.1 0 6 17.2 11 38.6 11.2 21.3.1 38.6-4.7 38.6-10.7.1-4.8-10.6-8.9-25.4-10.5z" fill="#6fbb44"/></svg>
