<svg enable-background="new 0 0 125.4 151.4" viewBox="0 0 125.4 151.4" xmlns="http://www.w3.org/2000/svg"><path d="m35.7 132.9-5.2-16.5h5.1l1.7 7.1c.4 1.8.9 3.8 1.2 5.7h.1c.3-2 .7-3.9 1.2-5.8l1.7-7h5.1l-5.7 16.6z" fill="#6fbb44"/><path d="m51.6 129.3-1.1 3.8h-4.5l5.3-16.4h5.5l4.5 16.5h-4.5l-1-3.8zm3.8-2.5-.8-3.4c-.2-1-.5-2.6-.8-3.7h-.1c-.3 1.1-.6 2.8-.9 3.8l-.9 3.4z" fill="#6fbb44"/><path d="m63.9 133.1.1-16.5h4.2l3.6 6.5c.7 1.3 1.9 3.4 2.5 4.8h.1c-.1-1.7-.4-4.6-.4-7.6v-3.6h4.1l-.1 16.5h-4.2l-3.6-6.3c-.8-1.4-1.8-3.5-2.4-5h-.1c.1 1.7.3 4.2.2 7.5v3.7z" fill="#6fbb44"/><path d="m86.9 116.8-.1 16.5h-4.6l.1-16.5z" fill="#6fbb44"/><path d="m90.4 130c1 .4 2.6.7 3.9.7 2.2 0 3.3-.8 3.3-1.8 0-1.2-1-1.8-3.1-2.7-3.2-1.4-4.5-3.1-4.5-4.6 0-2.6 2.6-4.8 7.5-4.8 1.6 0 3 .3 3.7.6l-.8 2.8c-.7-.3-1.7-.6-3-.6-2 0-2.9.8-2.9 1.7 0 1 .7 1.5 3.3 2.6 3.1 1.3 4.3 3 4.3 4.7 0 3-3.2 5-7.9 4.9-1.9 0-3.8-.4-4.5-.7z" fill="#6fbb44"/><path d="m109.5 116.9v6.6h4.8v-6.6h4.6l-.1 16.5h-4.6v-6.9h-4.8v6.9h-4.6l.1-16.5z" fill="#6fbb44"/><path d="m10.7 116.3-.1 16.5h-4.6l.1-16.5z"/><path d="m14.5 116.6c1.3-.2 3.1-.3 4.8-.3 2.8 0 4.9.3 6.5 1.3 1.4.9 2 2.2 2 3.6 0 1.8-.8 3-2 3.9-1.5 1.1-3.9 1.5-5.8 1.5-.3 0-.6 0-.9 0v6.1h-4.6zm4.6 7.5c.2 0 .5.1.7.1 2.3 0 3.4-1.1 3.4-2.7 0-1.4-.8-2.6-3-2.6-.4 0-.8 0-1.1.1z"/><path d="m101.9 47.4c-2.6-3.4-6.2-5.1-10.8-5.1l-20.8-.2-.1 11.2 18.8.2c1.3 0 2.4.5 3.2 1.6.7.9 1 2 1 3.3s-.4 2.3-1.1 3.2c-.8.9-1.8 1.4-3.2 1.4l-18.9-.3-.1 11.4 20.8.2c4.6.1 8.3-1.6 11-4.9 2.4-3 3.7-6.6 3.8-11-.1-4.2-1.2-7.9-3.6-11z"/><g fill="#6fbb44"><path d="m52.1 41h11.2v13.4h-11.2z" transform="matrix(.00616796 -1 1 .00616796 9.6621 105.0807)"/><path d="m40.1 31h6.8v8.2h-6.8z" transform="matrix(.00616796 -1 1 .00616796 8.063 78.3938)"/><path d="m30.7 30.8h5v6h-5z" transform="matrix(.00616796 -1 1 .00616796 -.8368 66.6936)"/><path d="m40.1 41.3h6.6v8h-6.6z" transform="matrix(.00616796 -1 1 .00616796 -2.1811 88.4501)"/><path d="m39.6 23.7h5v6h-5z" transform="matrix(.00616796 -1 1 .00616796 15.1716 68.5882)"/><path d="m30.8 24.1h3.7v4.4h-3.7z" transform="matrix(.00616796 -1 1 .00616796 6.1619 58.7876)"/><path d="m24.3 19.1h3.7v4.4h-3.7z" transform="matrix(.00616796 -1 1 .00616796 4.6924 47.365)"/><path d="m53 31.2h6.6v8h-6.6z" transform="matrix(.00616796 -1 1 .00616796 20.7329 91.2995)"/></g><path d="m64.3 63c-4 .5-7.2 1.9-9.5 4.2-2.6 2.6-4 6-4 10.2v7.9 6 3.6l13.3.1z"/><path d="m72.1 83.5c11.3 1.4 19.2 4.5 19.2 8 0 4.7-14.5 8.5-32.4 8.4s-32.3-4-32.3-8.8c0-3.5 8-6.5 19.3-7.7-14.9 1.4-25.6 5.3-25.6 10.1 0 6 17.2 11 38.6 11.2 21.3.1 38.7-4.7 38.7-10.7 0-4.8-10.7-8.9-25.5-10.5z" fill="#6fbb44"/></svg>
