<svg enable-background="new 0 0 125.4 41.6" viewBox="0 0 125.4 41.6" xmlns="http://www.w3.org/2000/svg"><g fill="#6fbc44"><path d="m36.1 28.8-5.3-16.3h5l1.7 7c.4 1.7.9 3.7 1.2 5.6h.1c.3-1.9.7-3.9 1.1-5.7l1.6-6.9h5l-5.4 16.2z"/><path d="m51.7 25.1-1 3.7h-4.4l5.1-16.2h5.5l4.6 16.2h-4.4l-1-3.7zm3.8-2.5-.8-3.4c-.2-1-.6-2.6-.8-3.7h-.1c-.2 1.1-.6 2.8-.8 3.7l-.9 3.4z"/><path d="m63.9 28.8v-16.3h4.2l3.6 6.4c.7 1.3 1.8 3.3 2.5 4.7h.1c-.1-1.7-.5-4.5-.5-7.5v-3.6h4v16.2h-4.2l-3.6-6.1c-.8-1.4-1.8-3.4-2.4-4.9h-.1c.1 1.6.3 4.1.3 7.4v3.6z"/><path d="m86.4 12.5v16.2h-4.6v-16.2z"/><path d="m90 25.5c.9.4 2.5.6 3.9.6 2.2 0 3.2-.8 3.2-1.8 0-1.2-1-1.8-3-2.6-3.2-1.3-4.4-3.1-4.4-4.5 0-2.6 2.5-4.8 7.4-4.8 1.5 0 3 .3 3.7.6l-.7 2.7c-.7-.3-1.7-.6-3-.6-1.9 0-2.9.8-2.9 1.7 0 1 .7 1.5 3.2 2.5 3.1 1.3 4.2 2.9 4.2 4.6 0 3-3.2 4.9-7.8 4.9-1.9 0-3.7-.3-4.5-.7z"/><path d="m108.7 12.5v6.5h4.8v-6.5h4.6v16.2h-4.6v-6.8h-4.8v6.8h-4.6v-16.2z"/></g><path d="m11.3 12.5v16.2h-4.5v-16.2z"/><path d="m15.1 12.8c1.3-.2 3-.3 4.8-.3 2.7 0 4.8.3 6.4 1.3 1.4.8 2 2.2 2 3.6 0 1.8-.8 3-2 3.9-1.5 1.1-3.8 1.5-5.7 1.5-.3 0-.6 0-.9 0v6h-4.6zm4.5 7.3h.7c2.3 0 3.3-1.1 3.3-2.6 0-1.4-.8-2.5-3-2.5-.4 0-.8 0-1.1.1v5z"/></svg>
